# xmcd CD database file
#
# Track frame offsets:
#	150
#	17045
#	39402
#	66552
#	98265
#	119073
#	139720
#	160152
#	190157
#	202265
#	218201
#	242746
#	266436
#	292079
#	311145
#
# Disc length: 4584 seconds
#
# Revision: 0
# Processed by: cddbd v1.5.2PL0 Copyright (c) Steve Scherf et al.
# Submitted via: CDex 1.50
#
DISCID=e611e60f
DTITLE=Mary Coughlan - The Whole Affair (The Very Best of) 2 (Live)
DYEAR=1900
DGENRE=Jazz
TTITLE0=You go to my head
TTITLE1=A Thrill's a Thrill
TTITLE2=You Send Me
TTITLE3=Ancient Rain
TTITLE4=Sweet Victim
TTITLE5=Blue Surrender
TTITLE6=Not Up to Scratch
TTITLE7=You've Changed
TTITLE8=I'll be Seeing You
TTITLE9=God Bless the Child
TTITLE10=Good Morning Heartache
TTITLE11=Heartbreak Hotel
TTITLE12=Love Will Tear Us Apart
TTITLE13=I Can't Make You Love Me
TTITLE14=I'd Rather Go Blind
EXTD=
EXTT0=
EXTT1=
EXTT2=
EXTT3=
EXTT4=
EXTT5=
EXTT6=
EXTT7=
EXTT8=
EXTT9=
EXTT10=
EXTT11=
EXTT12=
EXTT13=
EXTT14=
PLAYORDER=
